# xmcd
#
# Track frame offsets: 
#        150
#        4443
#        23476
#        55434
#        72079
#        92141
#        113645
#        137808
#        164266
#        181238
#        201518
#        228297
#
# Disc length: 3460 seconds
#
# Revision: 2
# Processed by: cddbd v1.5.2PL0 Copyright (c) Steve Scherf et al.
# Submitted via: ExactAudioCopy v0.95b4
#
DISCID=9f0d820c
DTITLE=Helloween - Gambling with the devil
DYEAR=2007
DGENRE=Power Metal
TTITLE0=Crack The Riddle
TTITLE1=Kill It
TTITLE2=The Saints
TTITLE3=As Long As I Fall
TTITLE4=Paint A New World
TTITLE5=Final Fortune
TTITLE6=The Bells Of The 7 Hells
TTITLE7=Fallen To Pieces 
TTITLE8=I.M.E.
TTITLE9=Can Do It
TTITLE10=Dreambound
TTITLE11=Heaven Tells No Lies
EXTD=
EXTT0=
EXTT1=
EXTT2=
EXTT3=
EXTT4=
EXTT5=
EXTT6=
EXTT7=
EXTT8=
EXTT9=
EXTT10=
EXTT11=
PLAYORDER=
